HIERARCHY
ROOT Hips
{
	OFFSET -3.958830 18.904000 13.208200
	CHANNELS 6 Xposition Yposition Zposition Zrotation Yrotation Xrotation 
	JOINT LHipJoint
	{
		OFFSET 0.000000 0.000000 0.000000
		CHANNELS 3 Zrotation Yrotation Xrotation
		JOINT LeftUpLeg
		{
			OFFSET 1.800000 -1.400000 0.085000
			CHANNELS 3 Zrotation Yrotation Xrotation
			JOINT LeftLeg
			{
				OFFSET 2.215000 -6.000000 0.000000
				CHANNELS 3 Zrotation Yrotation Xrotation
				JOINT LeftFoot
				{
					OFFSET 2.500000 -6.900000 0.000000
					CHANNELS 3 Zrotation Yrotation Xrotation
					JOINT LeftToeBase
					{
						OFFSET 0.200000 -0.500000 1.950000
						CHANNELS 3 Zrotation Yrotation Xrotation
						End Site
						{
							OFFSET 0.000000 0.000000 0.000000
						}
					}
				}
			}
		}
	}
	JOINT RHipJoint
	{
		OFFSET 0.000000 0.000000 0.000000
		CHANNELS 3 Zrotation Yrotation Xrotation
		JOINT RightUpLeg
		{
			OFFSET -1.800000 -1.400000 0.085000
			CHANNELS 3 Zrotation Yrotation Xrotation
			JOINT RightLeg
			{
				OFFSET -2.215000 -6.000000 0.000000
				CHANNELS 3 Zrotation Yrotation Xrotation
				JOINT RightFoot
				{
					OFFSET -2.500000 -6.900000 0.000000
					CHANNELS 3 Zrotation Yrotation Xrotation
					JOINT RightToeBase
					{
						OFFSET -0.200000 -0.500000 1.950000
						CHANNELS 3 Zrotation Yrotation Xrotation
						End Site
						{
							OFFSET 0.000000 0.000000 0.000000
						}
					}
				}
			}
		}
	}
	JOINT LowerBack
	{
		OFFSET 0.000000 0.000000 0.000000
		CHANNELS 3 Zrotation Yrotation Xrotation
		JOINT Spine
		{
			OFFSET -0.087000 1.940000 -0.288900
			CHANNELS 3 Zrotation Yrotation Xrotation
			JOINT Spine1
			{
				OFFSET 0.000000 1.950000 0.060000
				CHANNELS 3 Zrotation Yrotation Xrotation
				JOINT Neck
				{
					OFFSET 0.000000 0.000000 0.000000
					CHANNELS 3 Zrotation Yrotation Xrotation
					JOINT Neck1
					{
						OFFSET 0.000000 1.600000 0.340000
						CHANNELS 3 Zrotation Yrotation Xrotation
						JOINT Head
						{
							OFFSET 0.000000 1.667000 -0.240000
							CHANNELS 3 Zrotation Yrotation Xrotation
							End Site
							{
								OFFSET 0.000000 0.000000 0.000000
							}
						}
					}
				}
				JOINT LeftShoulder
				{
					OFFSET 0.000000 0.000000 0.000000
					CHANNELS 3 Zrotation Yrotation Xrotation
					JOINT LeftArm
					{
						OFFSET 2.700000 1.550000 -0.730000
						CHANNELS 3 Zrotation Yrotation Xrotation
						JOINT LeftForeArm
						{
							OFFSET 5.450000 0.000000 0.000000
							CHANNELS 3 Zrotation Yrotation Xrotation
							JOINT LeftHand
							{
								OFFSET 3.450000 0.000000 0.000000
								CHANNELS 3 Zrotation Yrotation Xrotation
								JOINT LeftHandIndex1
								{
									OFFSET 0.750000 0.000000 0.000000
									CHANNELS 3 Zrotation Yrotation Xrotation
									End Site
									{
										OFFSET 0.000000 0.000000 0.000000
									}
								}
							}
						}
					}
				}
				JOINT RightShoulder
				{
					OFFSET 0.000000 0.000000 0.000000
					CHANNELS 3 Zrotation Yrotation Xrotation
					JOINT RightArm
					{
						OFFSET -2.700000 1.550000 -0.730000
						CHANNELS 3 Zrotation Yrotation Xrotation
						JOINT RightForeArm
						{
							OFFSET -5.450000 0.000000 0.000000
							CHANNELS 3 Zrotation Yrotation Xrotation
							JOINT RightHand
							{
								OFFSET -3.450000 0.000000 0.000000
								CHANNELS 3 Zrotation Yrotation Xrotation
								JOINT RightHandIndex1
								{
									OFFSET -0.750000 0.000000 0.000000
									CHANNELS 3 Zrotation Yrotation Xrotation
									End Site
									{
										OFFSET 0.000000 0.000000 0.000000
									}
								}
							}
						}
					}
				}
			}
		}
	}
}
MOTION
Frames: 6
Frame Time: 0.016667
4.345450 17.822820 1.261240 -1.469748 -4.114419 -2.736074 -15.203123 13.702546 2.674089 4.955995 -1.072114 -13.367147 -5.387892 6.426103 17.395796 -0.350515 4.363338 3.085385 0.020700 0.021040 -0.045060 18.182786 -11.101716 2.506657 -3.890087 0.897785 -13.122425 3.815096 -4.435515 16.570019 0.131061 -3.528433 3.133342 0.252670 0.450290 0.097140 -3.312111 -2.047483 -6.784462 4.018490 0.728529 6.708255 3.540598 0.170467 9.879741 -1.066473 -2.341089 -6.209542 -6.552030 3.289542 34.676034 -5.368710 4.091020 1.299080 1.098865 -3.201589 0.779454 4.006325 -13.445766 4.012505 21.595604 -78.835469 -13.007331 -4.051733 3.456312 -0.159410 0.438940 -0.313650 0.058830 1.464387 5.798304 1.363428 4.444754 7.508377 -4.030791 -44.704494 78.868173 -29.102540 1.572752 -1.135123 -0.234990 0.204280 0.148820 -0.030560 
4.332970 17.833670 1.232550 -1.258315 -4.393402 -2.703563 -15.195272 13.685864 2.686996 4.707750 -1.091064 -13.456200 -5.382923 6.391823 17.346195 -0.353366 4.324698 3.093112 0.033960 0.040130 -0.047350 18.190731 -11.107546 2.510292 -3.803557 0.961033 -13.526359 3.603161 -4.355920 16.679507 0.130649 -3.477348 3.150051 0.259240 0.441630 0.089780 -3.331492 -2.011073 -6.790237 3.936907 0.697878 6.368616 3.448173 0.161635 10.398902 -1.113448 -2.668186 -6.758442 -7.280888 3.661745 35.604402 -4.901680 3.855530 1.086970 2.619900 -4.965041 1.282029 3.085248 -16.508787 4.706170 7.680474 -77.959333 -2.514259 -4.030776 3.547268 -0.146480 0.421290 -0.302090 0.065090 0.039594 7.811507 1.704373 3.813138 11.519237 -2.868140 -34.010273 78.415745 -21.702659 1.698667 -1.426630 -0.230280 0.212800 0.144610 -0.025740 
4.321720 17.846020 1.208200 -1.149598 -4.470927 -2.619955 -15.185845 13.677619 2.700018 4.524574 -1.106528 -13.503578 -5.288362 6.280111 17.006746 -0.347940 4.251088 3.119899 0.029380 0.033450 -0.060200 18.198120 -11.105582 2.523706 -3.718732 0.986419 -13.766578 3.533868 -4.300275 16.513182 0.134322 -3.424994 3.176511 0.244740 0.438480 0.082020 -3.355731 -2.000550 -6.814774 4.069186 0.560523 6.065722 3.238595 0.072718 10.708383 -1.095155 -3.041627 -7.403557 -8.195608 4.106609 36.834317 -4.469600 3.691290 1.432580 4.102576 -7.050226 1.788890 2.011232 -19.157810 5.244544 -3.306965 -76.463185 5.666370 -3.994405 3.580411 -0.134130 0.405660 -0.296350 0.070000 -1.465424 10.132173 2.153408 3.278653 15.062503 -1.808421 -23.644253 77.340514 -14.118044 1.789484 -1.605571 -0.226460 0.215010 0.145370 -0.019790 
4.309570 17.859420 1.181610 -1.004319 -4.212159 -2.509777 -15.186256 13.682755 2.718272 4.214359 -1.159518 -13.657989 -4.988279 6.100960 16.725083 -0.342327 4.148136 3.151211 0.022090 0.022680 -0.068510 18.193308 -11.099660 2.538683 -3.692111 1.000653 -13.997849 3.492586 -4.248968 16.287041 0.136277 -3.364011 3.199089 0.224280 0.424700 0.077210 -3.352556 -2.023023 -6.854019 3.988925 0.414236 5.914545 3.122822 -0.035763 10.847589 -1.033361 -3.209916 -8.062485 -8.764485 4.389040 38.110022 -4.055420 3.554640 1.752010 5.589938 -9.398212 2.159087 0.935133 -21.717683 5.552683 -10.438012 -74.360680 10.688482 -3.940534 3.588457 -0.118570 0.383650 -0.283160 0.069080 -3.025883 12.571309 2.687304 3.454234 17.887801 -1.125211 -16.332096 75.994943 -8.707746 1.838027 -1.673158 -0.218330 0.208100 0.145660 -0.015680 
4.297340 17.874690 1.160670 -0.925276 -4.154650 -2.431758 -15.186280 13.686380 2.732587 3.973227 -1.194846 -13.763982 -4.714384 5.942005 16.464340 -0.344697 4.050584 3.175614 0.027960 0.028010 -0.063380 18.189277 -11.091657 2.558805 -3.669408 0.973892 -14.001455 3.509704 -4.183741 15.762882 0.130048 -3.294073 3.223718 0.214710 0.399520 0.066970 -3.347996 -2.044370 -6.897447 3.953115 0.358244 5.846671 3.102813 -0.059975 10.932661 -1.002123 -3.391409 -8.661777 -9.376076 4.690237 39.385212 -3.603880 3.412770 1.607440 7.222966 -11.736768 2.393981 -0.413645 -24.226283 5.860608 -14.992046 -71.703828 13.494764 -3.870754 3.580176 -0.093840 0.352670 -0.261770 0.066430 -4.672494 15.053527 3.159229 3.924535 20.454674 -0.579110 -10.580375 74.347205 -4.497300 1.863846 -1.695735 -0.211290 0.207450 0.140520 -0.016920 
4.289810 17.892090 1.146560 -0.888085 -4.165083 -2.438945 -15.186218 13.685756 2.735407 3.779509 -1.192786 -13.685284 -4.401971 5.790671 16.222204 -0.334033 3.957825 3.198489 0.033270 0.035640 -0.054760 18.184847 -11.096424 2.580977 -3.711975 0.922604 -13.864285 3.662422 -4.164720 15.230196 0.119795 -3.249635 3.237750 0.203420 0.370110 0.059790 -3.341896 -2.028667 -6.937438 3.922357 0.390767 5.761386 3.167182 -0.026745 11.005912 -0.884350 -3.322681 -9.175019 -9.502167 4.791971 40.873551 -3.307180 3.346030 1.670710 8.483119 -14.196226 2.503335 -1.819121 -26.682066 6.112206 -16.327817 -68.609232 13.892412 -3.801873 3.556457 -0.078500 0.324200 -0.238390 0.062650 -6.092678 17.515688 3.546604 4.684054 22.869311 -0.093596 -7.061412 72.249133 -1.896866 1.881963 -1.687793 -0.197360 0.198260 0.130530 -0.016150 
